<svg xmlns="http://www.w3.org/2000/svg" width="44" height="46.591" viewBox="0 0 44 46.591">
  <g id="key" transform="translate(-14.237)">
    <g id="Group_3" data-name="Group 3" transform="translate(14.237)">
      <path id="Path_4" data-name="Path 4" d="M48.345,5.55a6.845,6.845,0,0,0-13.566,1.3V9.063a11.159,11.159,0,0,0-6.365,13.766l-2.756,2.756-.314,2.295-2.295.314-2.437,2.437L20.3,32.926,18,33.24l-3.767,3.767,4.252,4.252H24.24l11.3-11.3a11.108,11.108,0,0,0,6.522.121v.362l1.4,1.844-1.4,1.844v3.447l1.4,1.844-1.4,1.844v5.327h6.014l4.067-4.066V26.541a11.134,11.134,0,0,0-3.8-20.992ZM47.1,13.189a1.257,1.257,0,1,1-1.258,1.257A1.259,1.259,0,0,1,47.1,13.189Zm-9.6-6.343A4.115,4.115,0,0,1,45.544,5.59a11.1,11.1,0,0,0-5.8,2.675,11.2,11.2,0,0,0-2.239.071ZM42.065,27.2a8.389,8.389,0,0,1-6.337-.084l-.846-.357L23.109,38.529H19.62L18.1,37.007l1.187-1.187,3.439-.47.47-3.439,1.137-1.137,3.439-.47.47-3.439,3.376-3.376-.357-.846a8.412,8.412,0,0,1,6.171-11.53,11.13,11.13,0,0,0,4.637,15.427Zm8.2-2.8-.851.346V41.394l-2.467,2.467H44.795V42.183l2.1-2.764-2.1-2.764V35.047l2.1-2.764-2.1-2.764V24.746l-.851-.346a8.4,8.4,0,0,1,1.8-16.078V10.7a3.987,3.987,0,1,0,2.73,0V8.322a8.4,8.4,0,0,1,1.8,16.078Z" transform="translate(-14.237)" fill="#bfbfbf"/>
    </g>
  </g>
</svg>
